<svg width="35" height="35" viewBox="0 0 35 35" fill="none" xmlns="http://www.w3.org/2000/svg"><path d="M17.448 2.102c-7.405 0-11.426 3.692-12.29 11.287l-2.82 4.858c-.498.898-.19 1.99.73 2.502l2.13 1.065.685 4.747c.284 1.773 1.911 3.626 3.894 3.538h2.125v2.8h14v-4.483c0-2.003.68-4.03 1.958-5.857 1.231-1.713 1.868-4.025 2.115-6.087 1.782-1.49 2.927-3.562 2.927-5.92 0-4.715-4.264-8.451-9.425-8.451-.938 0-1.847.126-2.708.356a15.42 15.42 0 00-3.322-.356zm6.03 1.4c4.49 0 8.024 3.184 8.024 7.05 0 3.825-3.899 6.95-8.4 6.95-.648 0-1.282-.05-1.841-.178l-.22-.05-.208.088c-.657.278-1.861.823-3.063 1.196a8 8 0 01-1.503.302c.674-.538 1.525-1.332 1.799-2.55l.093-.41-.323-.276c-1.517-1.294-2.434-3.096-2.434-5.072 0-3.86 3.583-7.05 8.074-7.05zm-4.226 5.6a1.05 1.05 0 100 2.1 1.05 1.05 0 000-2.1zm4.2 0a1.05 1.05 0 100 2.1 1.05 1.05 0 000-2.1zm4.2 0a1.05 1.05 0 100 2.1 1.05 1.05 0 000-2.1z" fill="#FFC542"/></svg>