<svg width="24" height="24" viewBox="0 0 24 24" fill="none" xmlns="http://www.w3.org/2000/svg">
<path fill-rule="evenodd" clip-rule="evenodd" d="M15.0019 12.9125V18C15.0019 18.3788 14.7879 18.725 14.4491 18.8944L10.4491 20.8944C9.78421 21.2269 9.0019 20.7434 9.0019 20V12.9125L2.22794 4.63324C1.69372 3.98031 2.15827 3 3.0019 3H21.0019C21.8455 3 22.3101 3.98031 21.7759 4.63324L15.0019 12.9125ZM13.0019 17.382V12.5556C13.0019 12.3247 13.0818 12.101 13.2279 11.9223L18.8917 5H5.11214L10.7759 11.9223C10.922 12.101 11.0019 12.3247 11.0019 12.5556V18.382L13.0019 17.382Z" fill="#92929D"/>
</svg>
